<svg width="24" height="24" viewBox="0 0 24 24" fill="none" xmlns="http://www.w3.org/2000/svg">
    <path d="M18.6866 3.6543L16.7925 4.69698L15.8545 6.49095L16.7925 8.6856L18.5682 10.6071L20.4897 9.53705L21.6689 7.50176L20.4897 4.98384L18.6866 3.6543Z" fill="#0066DA"/>
    <path d="M11.3512 10.9898L15.8543 6.48663C17.1793 7.49289 18.1537 8.93625 18.568 10.6027L12.3893 16.786C11.8338 17.3415 10.9323 17.3415 10.3768 16.786L6.21059 12.6198C5.76437 12.1736 5.76437 11.4542 6.21059 11.0125L7.98634 9.23677C8.43256 8.79055 9.15197 8.79055 9.59363 9.23677L11.3512 10.9898ZM23.6676 3.89585L21.86 2.08822C21.4183 1.64656 20.6944 1.64656 20.2527 2.08822L18.6864 3.65452C19.9385 4.70176 20.9585 6.01309 21.6688 7.50199L23.6676 5.50313C24.1138 5.06147 24.1138 4.33751 23.6676 3.89585ZM18.782 12.383C18.782 16.4718 15.4673 19.782 11.383 19.782C7.29881 19.782 3.98406 16.4718 3.98406 12.383C3.98406 8.29425 7.29425 4.98406 11.383 4.98406C13.0632 4.98406 14.6113 5.54411 15.8543 6.49118L18.6864 3.65908C16.7103 1.99715 14.1651 1 11.383 1C5.09505 1 0 6.09505 0 12.383C0 18.671 5.09505 23.7661 11.383 23.7661C17.671 23.7661 22.7661 18.671 22.7661 12.383C22.7661 10.6392 22.37 8.98179 21.6688 7.50199L18.568 10.6073C18.7046 11.1764 18.782 11.7729 18.782 12.383Z" fill="#2684FC"/>
</svg>
